<?xml version="1.0" encoding="utf-8"?>
<!-- Generator: Adobe Illustrator 26.2.1, SVG Export Plug-In . SVG Version: 6.00 Build 0)  -->
<svg version="1.1" id="Layer_1" xmlns="http://www.w3.org/2000/svg" xmlns:xlink="http://www.w3.org/1999/xlink" x="0px" y="0px"
	 viewBox="0 0 150 150" style="enable-background:new 0 0 150 150;" xml:space="preserve">
<g transform="translate(0.000000,245.000000) scale(0.100000,-0.100000)">
	<path d="M695.4,2300.1c-30-30-30-77.5,1-77.5c11.6,0,20.3,8.7,24.2,24.2c4.8,18.4,11.6,24.2,32.9,24.2c15.5,0,32.9-6.8,38.7-16.5
		c15.5-26.1-27.1-65.8-70.7-65.8c-71.7,0-190.8-81.3-228.5-155.9c-42.6-82.3-36.8-190.8,15.5-275l30-48.4l-22.3-14.5
		c-82.3-53.3-154-154-154-217.9c0-16.5,8.7-46.5,18.4-65.8l18.4-35.8l-28.1-28.1c-50.4-50.4-31-126.9,57.1-221.8
		c43.6-46.5,50.4-50.4,91-50.4c35.8,0,50.4,5.8,74.6,28.1c25.2,23.2,30,35.8,30,70.7c0,22.3-10.7,66.8-23.2,97.8l-23.2,55.2h111.4
		c109.4,0,110.4,0,107.5,22.3c-2.9,21.3-5.8,21.3-131.7,21.3c-123.9,0-128.8,1-133.6,21.3c-13.6,53.3-16.5,52.3,209.2,52.3h208.2
		l8.7-29.1c6.8-25.2,3.9-35.8-17.4-67.8c-32.9-47.4-63.9-127.8-63.9-166.6c0-63.9,41.6-104.6,105.6-105.6c39.7,0,47.4,3.9,90.1,50.4
		c54.2,59.1,85.2,117.2,85.2,159.8c0,32.9-40.7,90.1-63.9,90.1c-16.5,0-16.5,1,1,34.9c33.9,64.9,11.6,142.3-61,216.9
		c-30,30-63.9,60-74.6,65.8c-18.4,9.7-18.4,10.7,6.8,37.8c69.7,73.6,88.1,207.2,40.7,302.1c-28.1,56.2-97.8,118.1-154,136.5
		c-33.9,11.6-34.9,12.6-20.3,34.9c23.2,33.9,18.4,64.9-11.6,93.9C782.5,2333,729.3,2334,695.4,2300.1z M832.9,2125.8
		c94.9-39.7,149.1-116.2,149.1-211.1c0-68.8-19.4-116.2-65.8-164.6c-68.8-71.7-172.4-101.7-245-71.7
		c-51.3,21.3-110.4,78.4-135.6,130.7c-27.1,55.2-30,146.2-5.8,192.7C587.9,2112.2,728.3,2169.3,832.9,2125.8z M624.7,1649.3
		c72.6-37.8,167.5-38.7,233.4-1l46.5,26.1l47.4-37.8c26.1-21.3,60-53.3,73.6-72.6c33.9-43.6,42.6-110.4,20.3-145.3
		c-23.2-35.8-44.5-31-44.5,8.7c0,17.4-6.8,37.8-14.5,44.5c-8.7,7.7-14.5,29.1-14.5,54.2c0,38.7-1.9,42.6-24.2,42.6
		c-21.3,0-24.2-3.9-24.2-38.7v-38.7h-183H558.9l1,36.8c1,30-1.9,35.8-20.3,38.7c-19.4,2.9-22.3-1-22.3-32c0-21.3-7.7-45.5-19.4-60
		c-10.7-13.6-19.4-37.8-19.4-52.3c0-35.8-21.3-36.8-47.4-2.9c-28.1,35.8-25.2,79.4,7.7,131.7c22.3,35.8,116.2,123.9,131.7,123.9
		C572.4,1675.5,596.6,1663.9,624.7,1649.3z M510.4,1326.9c30-23.2,66.8-117.2,62.9-158.8c-3.9-36.8-44.5-61-75.5-44.5
		c-23.2,12.6-92,101.7-105.6,137.5c-15.5,41.6,18.4,76.5,82.3,84.2C480.4,1345.3,496.9,1337.5,510.4,1326.9z M1095.3,1311.4
		c26.1-29.1,19.4-52.3-36.8-126.9c-50.4-66.8-67.8-75.5-106.5-55.2c-28.1,14.5-30,18.4-25.2,57.1c5.8,57.1,44.5,132.7,74.6,147.2
		C1032.4,1349.1,1069.2,1340.4,1095.3,1311.4z"/>
	<path d="M596.6,1931.1c-11.6-7.7-21.3-20.3-21.3-27.1c0-17.4,33.9-26.1,47.4-12.6c7.7,7.7,16.5,7.7,28.1,1
		c24.2-14.5,50.4-5.8,43.6,13.6C680.9,1945.7,634.4,1958.2,596.6,1931.1z"/>
	<path d="M815.5,1935c-24.2-20.3-28.1-43.6-7.7-49.4c9.7-2.9,22.3,0,28.1,5.8c7.7,7.7,16.5,7.7,28.1,1c18.4-10.7,50.4-6.8,50.4,6.8
		c0,17.4-38.7,47.4-61,47.4C840.6,1946.6,824.2,1940.8,815.5,1935z"/>
	<path d="M672.2,1806.2c0-24.2,39.7-53.3,72.6-53.3c26.1,0,69.7,27.1,75.5,47.4c6.8,28.1-1,31-40.7,14.5c-32-12.6-39.7-12.6-71.7,1
		C672.2,1830.4,672.2,1830.4,672.2,1806.2z"/>
	<path d="M836.8,1351.1c0-21.3,3.9-25.2,22.3-22.3c13.6,1.9,21.3,9.7,21.3,22.3c0,12.6-7.7,20.3-21.3,22.3
		C840.6,1376.3,836.8,1372.4,836.8,1351.1z"/>
	<path d="M818.4,1142.9c-27.1-23.2-102.6-26.1-130.7-4.8c-28.1,21.3-54.2,18.4-54.2-4.8c0-11.6,12.6-28.1,32-39.7
		c46.5-29.1,152-23.2,186.9,11.6c15.5,15.5,22.3,30,17.4,40.7C861.9,1167.1,847.4,1166.1,818.4,1142.9z"/>
</g>
</svg>
