<?xml version="1.0" encoding="utf-8"?>
<!-- Generator: Adobe Illustrator 26.2.1, SVG Export Plug-In . SVG Version: 6.00 Build 0)  -->
<svg version="1.1" id="Layer_1" xmlns="http://www.w3.org/2000/svg" xmlns:xlink="http://www.w3.org/1999/xlink" x="0px" y="0px"
	 viewBox="0 0 150 150" style="enable-background:new 0 0 150 150;" xml:space="preserve">
<g transform="translate(0.000000,245.000000) scale(0.100000,-0.100000)">
	<path d="M695.5,2285c-19.7-19.7-25.9-39.4-21.8-69.5c2.1-10.4-45.6-13.5-203.3-13.5H264l-45.6-41.5c-25.9-23.9-57.1-49.8-69.5-59.1
		c-13.5-8.3-23.9-21.8-23.9-29s32.2-41.5,71.6-76.8l71.6-63.3h201.2h200.2l-3.1-405.6c-2.1-302.9,0-409.8,9.3-420.1
		c9.3-11.4,31.1-14.5,80.9-12.4l68.5,3.1l3.1,298.8l2.1,297.7h200.2h199.2l72.6,64.3c40.5,35.3,72.6,68.5,72.6,75.7
		c0,6.2-34.2,40.5-75.7,76.8l-74.7,64.3l-197.1-3.1l-197.1-3.1v146.3c0,139-1,147.3-23.9,168C775.4,2312,723.5,2313,695.5,2285z
		 M778.5,2253.9c19.7-19.7,20.7-34.2,20.7-570.5v-549.8h-46.7h-46.7v553.9c0,490.7,2.1,556,16.6,570.5
		C743.3,2279.8,753.6,2278.8,778.5,2253.9z M667.5,2071.3l-1-99.6l-195,2.1l-194,1l-55,46.7l-55,47.7l59.1,50.8l59.1,50.8h191.9
		h191.9L667.5,2071.3z M1274.4,1883.5l57.1-48.8l-53.9-49.8l-53.9-49.8h-197.1H830.4v98.5v98.5h192.9h194L1274.4,1883.5z"/>
</g>
</svg>
