<?xml version="1.0" encoding="utf-8"?>
<!-- Generator: Adobe Illustrator 26.2.1, SVG Export Plug-In . SVG Version: 6.00 Build 0)  -->
<svg version="1.1" id="Layer_1" xmlns="http://www.w3.org/2000/svg" xmlns:xlink="http://www.w3.org/1999/xlink" x="0px" y="0px"
	 viewBox="0 0 150 150" style="enable-background:new 0 0 150 150;" xml:space="preserve">
<g transform="translate(0.000000,245.000000) scale(0.100000,-0.100000)">
	<path d="M358.3,2201.9c0-8.3,25-39.2,56.7-69.2c41.7-40.8,67.5-58.3,101.7-69.2c106.7-35.8,138.3-60,306.7-229.2
		c93.3-94.2,160-168.3,160-177.5c0-8.3-9.2-20-20.8-25c-20.8-9.2-25.8-5.8-106.7,75c-46.7,46.7-91.7,85-100,85
		c-32.5,0-9.2-35,82.5-120.8c112.5-106.7,118.3-115.8,98.3-138.3c-7.5-8.3-20-15.8-27.5-15.8s-58.3,45-113.3,100
		c-95,95-129.2,118.3-129.2,85.8c0-8.3,50.8-63.3,112.5-122.5S900,1459.4,910,1443.6l17.5-29.2l-18.3-15
		c-10.8-9.2-21.7-15.8-25-15.8c-2.5,0-63.3,58.3-134.2,129.2s-135.8,129.2-143.3,129.2c-33.3,0-10-35,85-128.3
		c55-54.2,100-105,100-112.5c0-8.3-7.5-21.7-16.7-30c-17.5-15.8-19.2-14.2-165,131.7c-133.3,133.3-176.7,166.7-176.7,137.5
		c0-5,5.8-15.8,12.5-23.3c11.7-12.5,9.2-17.5-20-48.3l-33.3-34.2l-47.5,51.7c-63.3,68.3-78.3,105-84.2,202.5l-5,79.2l-53.3,51.7
		c-58.3,56.7-77.5,66.7-77.5,40.8c0-9.2,20.8-35.8,49.2-61.7l48.3-45l4.2-80c5-97.5,20.8-133.3,91.7-210c45.8-50,49.2-56.7,38.3-70
		c-30.8-35.8-23.3-75.8,18.3-97.5l25.8-13.3l-17.5-21.7c-16.7-21.7-20.8-48.3-11.7-73.3c11.7-30,95-50.8,117.5-28.3
		c5.8,5.8,15.8,0.8,34.2-16.7c27.5-27.5,38.3-30.8,72.5-17.5c19.2,7.5,24.2,5,43.3-16.7c16.7-20.8,26.7-25,55.8-25
		c32.5,0,39.2,4.2,109.2,75.8c41.7,41.7,88.3,81.7,104.2,89.2c15.8,8.3,40,30.8,54.2,52.5c13.3,20.8,48.3,63.3,76.7,94.2
		c43.3,47.5,58.3,72.5,91.7,152.5l40,95.8l102.5,98.3c55.8,54.2,101.7,104.2,101.7,111.7c0,31.7-35.8,6.7-135-92.5
		c-103.3-105-106.7-108.3-145-197.5c-29.2-67.5-52.5-105-89.2-148.3c-39.2-45.8-51.7-55-60.8-47.5c-9.2,7.5-6.7,13.3,14.2,33.3
		c23.3,21.7,25.8,28.3,22.5,60.8c-4.2,32.5-2.5,37.5,15,45.8c21.7,9.2,32.5,40.8,25.8,70c-3.3,10-67.5,80-143.3,155.8l-137.5,137.5
		l35.8,5.8c19.2,2.5,57.5,5.8,85,5.8l50,0.8l102.5,102.5c55.8,55.8,101.7,108.3,101.7,116.7c0,31.7-34.2,10-124.2-80.8l-95-95
		l-71.7-6.7c-39.2-2.5-80-9.2-90.8-12.5c-15.8-5.8-28.3-1.7-65,25c-25,18.3-75,43.3-110,55.8c-53.3,18.3-73.3,31.7-118.3,75.8
		C386.7,2216.9,358.3,2230.2,358.3,2201.9z M487.5,1471.9c-25.8-30-54.2-55-61.7-55c-17.5,0-50.8,23.3-50.8,35.8
		c0,5,25,35,55.8,65.8l56.7,56.7l24.2-24.2l24.2-24.2L487.5,1471.9z M594.2,1468.6l22.5-24.2l-67.5-72.5
		c-79.2-84.2-90-91.7-119.2-80c-39.2,14.2-27.5,39.2,55,122.5c42.5,42.5,79.2,77.5,81.7,77.5C570,1491.9,581.7,1481.1,594.2,1468.6z
		 M641.7,1312.7c-54.2-54.2-85-67.5-95-40.8c-10,25.8-4.2,36.7,46.7,90.8l50.8,55l25.8-25l25.8-25.8L641.7,1312.7z M785.8,1296.9
		c-35.8-37.5-70-70.8-75.8-74.2c-15.8-10-43.3,1.7-51.7,21.7c-5,15,0,25,26.7,53.3c30,30,37.5,34.2,61.7,30
		c32.5-5,65.8,12.5,74.2,39.2c4.2,14.2,7.5,15.8,17.5,7.5C848.3,1366.1,840,1353.6,785.8,1296.9z"/>
</g>
</svg>
