<?xml version="1.0" encoding="utf-8"?>
<!-- Generator: Adobe Illustrator 26.2.1, SVG Export Plug-In . SVG Version: 6.00 Build 0)  -->
<svg version="1.1" id="Layer_1" xmlns="http://www.w3.org/2000/svg" xmlns:xlink="http://www.w3.org/1999/xlink" x="0px" y="0px"
	 viewBox="0 0 150 150" style="enable-background:new 0 0 150 150;" xml:space="preserve">
<path d="M64.8,16.5c-7,7.4-10.4,21.8-6.3,26.7c0.9,1.2,3.1,2.4,4.8,2.5c2.6,0.2,3.1-0.2,3.7-2.9l0.7-3.1l0.1,3.3
	c0.1,3-0.4,3.5-4.7,5.4c-7.9,3.5-11.1,7.4-11.7,14.4c-0.6,5.3,2.5,4.9,3.3-0.4c0.5-3,1.8-5.1,5-8.2l4.4-4.1l1.6,2.6
	c0.9,1.3,3.1,4,4.8,6c4.3,4.7,7.5,3.9,12-3c1.7-2.8,3.6-5.1,4-5.1c0.4,0,2.6,1.7,4.8,3.9c3.1,2.9,4.3,5,4.8,8.2
	c0.7,4.7,3.5,6.1,3.5,1.7c0-6.6-5.9-14-12.9-16.4c-3.4-1.1-4.1-1.8-4.3-4.5c-0.2-1.7,0.1-3.2,0.7-3.2c0.6,0,1.1,1.1,1.1,2.6
	c0,2.2,0.5,2.6,3,2.6c10.1,0,9.2-16.8-1.4-28.7c-3.7-4.1-4-4.2-10.6-4.2C68.9,12.5,68.6,12.6,64.8,16.5z M84,19
	c6,7,8.9,17.6,6.2,21.8c-2.1,3.1-3.7,3.3-3.7,0.4c0-1.1-1.2-5.6-2.7-10c-2.9-8.3-6.1-12.4-8-10.5c-0.8,0.8-0.6,1.5,0.7,2.5
	c0.9,0.7,1.7,1.8,1.7,2.5c0,1.5-3.3,2.5-4.5,1.2c-0.5-0.5-2.8-1-4.9-1c-3.4,0-3.9,0.3-3.9,2.3c0,1.3,0.4,3.1,0.9,3.8
	c0.6,1,0.5,2.4-0.1,3.6C65,36.7,64.3,39,64,40.6c-0.6,2.9-0.7,2.9-2.5,1.2c-3.8-3.9-0.6-16.6,5.9-23.4c2.3-2.3,3.5-2.8,8.2-2.8
	C80.8,15.7,81.6,16.1,84,19z M72.1,30c0,0.5-0.9,1-2.1,1S68,30.5,68,30c0-0.6,0.9-1,2.1-1S72.1,29.3,72.1,30z M79.3,34.1
	c1,0,2.3,0.5,2.6,1c0.9,1.4-2,5.8-4.6,7.2c-1.8,1-2.7,0.6-5.6-2.4c-4.2-4.2-4.5-5.9-1.1-5.9c1.3,0,3-0.7,3.8-1.6
	c1.1-1.4,1.3-1.4,2.2,0C77,33.3,78.3,34.1,79.3,34.1z M79.3,47.1c0,1.4,0.7,2.4,2.1,2.6c1.8,0.3,1.6,0.8-1.8,4.9l-4,4.5l-3.7-4
	c-4.1-4.5-4.6-5.6-2.3-5.6c0.9,0,1.5-0.9,1.5-2.4c0-2.1,0.5-2.4,4.1-2.3C78.7,44.9,79.3,45.2,79.3,47.1z"/>
<path d="M71.7,36.8c-0.9,1,1.4,3.4,3.5,3.4s4.7-2.8,3.7-3.8c-0.3-0.4-1.1-0.2-1.8,0.5c-0.7,0.7-1.7,0.8-2.9,0.2
	C73.2,36.6,72.1,36.5,71.7,36.8z"/>
<path d="M73.8,68.7c-0.3,0.3-0.6,2.7-0.6,5v4.5L55,78.4l-18.3,0.3v6.1c0,4,0.4,6.3,1.3,6.5c0.8,0.3,1.2-1,1.2-4.7v-5.2h16.9h16.9
	v5.2c0,6.8,2.5,6.4,2.9-0.4l0.3-4.8h16.3H109l0.3,4.8c0.2,3.6,0.7,4.9,1.8,4.9c1.2,0,1.5-1.3,1.5-6.2v-6.2l-18.2-0.3l-18.3-0.2v-4.6
	C76.2,69.3,75.2,67.2,73.8,68.7z"/>
<path d="M32.6,93.6c-3.1,1.2-6.7,4.9-7.8,8c-0.6,1.4-0.9,6.8-0.8,11.7c0.2,8.2,0,9.3-2.2,11.6c-2.4,2.5-3.3,9-1.6,11.7
	c1.3,2.1,2.7,0.1,2.7-3.9c0-2.5,0.8-4.9,2.1-6.4l2-2.5l4.3,4.9c5.3,6.3,8.2,6.3,12.7,0c1.6-2.4,3.6-4.3,4.2-4.3
	c2.1-0.1,3.9,3,4.4,7.4c0.4,2.9,1.1,4.3,2.2,4.3c2.3,0,1.5-7.5-1-11c-1.7-2.4-2.1-4.4-2.1-12.3c0-7.3-0.4-10.4-1.8-13
	C46.6,94,38.5,91.1,32.6,93.6z M45.3,99.3c2.5,2.4,2.7,3.4,2.9,12.4c0.2,8.5,0.1,9.8-1.3,9.2c-0.9-0.3-2.1-0.6-2.6-0.6
	c-1.5,0-1-2.7,0.6-4.1c1.2-1,1.5-2.9,1.3-7.1c-0.3-5.3-0.5-5.8-3-6.1c-1.5-0.2-3.8-1.4-5.1-2.9c-2.8-3-4.4-3.2-3.7-0.5
	c0.4,1.6-0.2,2.2-2.5,2.7c-2.9,0.6-3,0.9-3,6.7c0,4,0.5,6.4,1.5,7.2c1.7,1.4,2.1,4.1,0.6,4.1c-0.5,0-1.6,0.3-2.5,0.6
	c-1.2,0.4-1.5-0.9-1.6-7.6c-0.2-9.9,0.8-12.9,5.2-15.6C36.6,95.1,41.7,95.7,45.3,99.3z M43.6,110.3c-0.3,3.4-3.3,7-5.9,7
	c-2.5,0-5.4-3.6-6.1-7.3c-0.6-3.3-0.4-3.7,2.2-4.6c2-0.7,4-0.6,6.5,0.2C43.6,106.7,43.9,107.1,43.6,110.3z M41.3,121.7
	c1.4,0.6,2.8,1.2,3,1.4c0.7,0.4-5.3,7.5-6.7,7.5c-1.2,0-6.6-6.1-6.6-7.5c0-0.4,0.7-0.7,1.5-0.7c0.9,0,1.8-0.6,2.2-1.4
	C35.4,119.4,36.6,119.6,41.3,121.7z"/>
<path d="M105.5,94.6c-6.5,4-7.2,5.5-7.4,17.2c-0.2,9.1-0.5,11.1-2.4,13.5c-1.5,2.1-2.1,3.9-1.8,7.2c0.4,5.9,2.3,5.8,2.9-0.2
	c0.3-2.6,1.4-5.4,2.4-6.5c1.7-1.6,2.1-1.4,6,3.2c2.8,3.2,4.9,4.8,6.6,4.8c1.6,0,3.8-1.6,6.6-4.8c3.9-4.6,4.2-4.8,6-3.2
	c0.9,1,2,3.8,2.3,6.2c0.4,3.2,1.1,4.5,2.6,4.7c1.7,0.4,1.8-0.1,1.4-4.4c-0.4-2.9-1.4-5.6-2.8-7.1c-1.8-2-2.2-3.5-2.2-12
	c0-11.3-1.6-15.6-7.3-18.6C113.8,92.1,109.4,92.1,105.5,94.6z M119.7,99.8c2.6,2.9,2.8,3.7,2.8,12.4c0,8.1-0.2,9.2-1.6,8.7
	c-0.9-0.3-2.1-0.6-2.6-0.6c-1.5,0-1-2.7,0.6-4.1c1.2-1,1.5-2.9,1.3-7.1c-0.3-5.4-0.5-5.8-3.1-6.1c-1.5-0.2-3.7-1.4-4.8-2.9
	c-2.4-3-4.6-3.3-3.9-0.5c0.4,1.6-0.2,2.2-2.5,2.7c-2.9,0.6-3,0.9-3,6.7c0,4,0.5,6.4,1.5,7.2c1.7,1.4,2.1,4.1,0.6,4.1
	c-0.5,0-1.5,0.2-2.4,0.5c-1.7,0.7-2.5-14.2-0.9-18.3C104.6,95.5,114.3,93.9,119.7,99.8z M113,104.8c0.9,0.5,2.5,1.2,3.4,1.4
	c2.5,0.8,1.2,7.6-1.7,9.6c-4.3,2.9-7.6,0.5-8.9-6.4c-0.5-2.7-0.2-3.3,2.2-4.2c1.5-0.6,2.9-1.1,3.1-1.2
	C111.1,103.9,112,104.3,113,104.8z M115.3,121.7c1.4,0.6,2.8,1.2,3,1.4c0.7,0.4-5.3,7.5-6.7,7.5c-1.2,0-6.6-6.1-6.6-7.5
	c0-0.4,0.7-0.7,1.5-0.7c0.9,0,1.8-0.6,2.2-1.4C109.3,119.4,110.5,119.6,115.3,121.7z"/>
<path d="M65.5,96c-2.1,1.6-2.8,3.4-3,6.4c-0.1,2.3-0.5,4.7-1,5.4c-1.1,1.8,0.1,6.4,1.8,6.4c0.7,0,1.8,1.2,2.6,2.7
	c1.3,3.1,0.1,5.5-2.9,5.5c-3.3,0-6.4,3.1-6.1,6c0.3,3.2,2.2,3.4,2.7,0.3c0.4-2.8,6.4-4.4,10.6-3c2.2,0.7,4.4,0.7,7.4-0.1
	c5.8-1.4,10.1-0.2,11.8,3.3c1.4,3.1,3.3,2.9,3.3-0.4c0-2.7-3.6-6.1-6.6-6.1c-4.5,0-4.2-4.6,0.6-9.4c1.2-1.2,1.7-2.7,1.2-3.7
	c-0.4-0.9-1-4-1.4-6.8c-1-7-3.5-8.8-11.9-8.8C69.4,93.6,67.6,94,65.5,96z M81.8,98.4c1.6,1.6,2.3,4.5,0.9,4.5c-0.4,0-1.7-1-3.1-2.3
	c-1.8-1.7-2.7-2-3.3-1c-0.4,0.7-2.6,1.5-4.8,2c-2.2,0.3-4.6,1-5.2,1.6c-2.3,1.6-1.5-2.2,0.7-4.4C69.7,96.1,79.3,95.9,81.8,98.4z
	 M82.4,108.5c0,9.7-9.9,14.4-13.9,6.6c-1.8-3.5-2.1-9-0.2-9.6c7-2,9.6-2.2,11.8-0.8C81.4,105.6,82.4,107.2,82.4,108.5z M79.8,122.4
	c-0.3,0.5-2.7,1-5.1,1s-4.8-0.5-5.1-1c-0.4-0.6,1.5-1,5.1-1S80.2,121.8,79.8,122.4z"/>
</svg>
