<?xml version="1.0" encoding="utf-8"?>
<!-- Generator: Adobe Illustrator 26.2.1, SVG Export Plug-In . SVG Version: 6.00 Build 0)  -->
<svg version="1.1" id="Layer_1" xmlns="http://www.w3.org/2000/svg" xmlns:xlink="http://www.w3.org/1999/xlink" x="0px" y="0px"
	 viewBox="0 0 150 150" style="enable-background:new 0 0 150 150;" xml:space="preserve">
<g transform="translate(0.000000,245.000000) scale(0.100000,-0.100000)">
	<path fill="#1D3469" d="M439.2,2019.9c-178.9-178.9-301.5-310-296.6-318.6c4.9-7.4,31.9-13.5,60-13.5h51.5l-2.5-155.6l-2.5-156.9l-44.1,4.9
		c-44.1,3.7-84.6-17.2-72.3-36.8c3.7-6.1,110.3-11,237.7-11H601l-67.4-111.5c-36.8-61.3-63.7-118.9-60-128.7
		c4.9-13.5,55.1-17.2,269.6-17.2c144.6,0,270.8,3.7,281.9,7.4c23.3,8.6,17.2,22.1-55.1,145.8l-57.6,98l227.9,6.1
		c192.4,4.9,229.2,8.6,229.2,24.5c0,13.5-14.7,18.4-57.6,17.2h-58.8v156.9v156.9h49c98,0,83.3,20.8-234.1,338.2
		c-164.2,164.2-303.9,299-311.3,299C749.3,2325,607.1,2187.7,439.2,2019.9z M842.4,2177.9c66.2-67.4,82.1-88.2,69.9-100.5
		s-30.6,0-88.2,57.6l-73.5,73.5L514,1972.1c-178.9-178.9-242.6-235.3-265.9-235.3c-25.7,0,14.7,45.3,232.8,263.5
		c144.6,144.6,265.9,263.5,269.6,263.5S795.8,2225.7,842.4,2177.9z M811.8,2086l55.1-56.4l-156.9-154.4
		c-89.5-89.5-153.2-163-150.7-171.6c3.7-9.8,27-15.9,58.8-15.9h52.7l-2.5-154.4l-2.5-154.4l-185-1.2l-183.8-2.5v159.3v159.3l223,223
		c123.8,123.8,226.7,224.3,230.4,224.3S782.4,2116.7,811.8,2086z M1289.7,1729.4c0-1.2-14.7,1.2-33.1,4.9
		c-22.1,3.7-79.7,50.2-165.4,134.8l-132.4,131.1l-132.4-132.4c-95.6-95.6-139.7-131.1-161.8-131.1c-25.7,0-4.9,25.7,132.4,163
		l161.8,163l165.4-165.4C1215,1806.6,1289.7,1730.6,1289.7,1729.4z M1063,1834.8l98-98H958.8H756.6l98,98
		c53.9,53.9,100.5,98,104.2,98C962.5,1932.8,1009.1,1888.7,1063,1834.8z M1203.9,1532.1v-156.9l-56.4,1.2l-57.6,1.2l2.5,118.9
		c2.5,77.2-2.5,126.2-12.3,137.3c-9.8,12.3-41.7,17.2-109.1,17.2c-140.9,0-134.8,6.1-134.8-145.8v-129.9H775h-61.3v156.9v155.6
		h245.1h245.1V1532.1z M1044.6,1489.2v-114l-80.9,1.2l-80.9,1.2l-1.2,111.5l-2.5,112.7h83.3h82.1V1489.2z M913.5,1231.9
		c31.9-53.9,56.4-100.5,53.9-104.2c-2.5-2.5-101.7-2.5-218.1-1.2l-214.5,3.7l60,101.7l58.8,100.5h100.5h100.5L913.5,1231.9z"/>
	<path fill="#1D3469" d="M341.2,1643.6c-11-27-8.6-106.6,2.5-125c7.4-11,45.3-14.7,144.6-12.3l133.6,3.7v73.5v73.5l-136,3.7
		C369.4,1663.2,347.3,1660.8,341.2,1643.6z M462.5,1583.6c0-29.4-4.9-34.3-39.2-36.8c-38-3.7-40.4-1.2-40.4,36.8
		c0,38,2.5,40.4,40.4,36.8C457.6,1617.9,462.5,1613,462.5,1583.6z M591.2,1583.6c0-35.5-3.7-38-42.9-38s-42.9,2.5-42.9,38
		c0,35.5,3.7,38,42.9,38S591.2,1619.1,591.2,1583.6z"/>
</g>
</svg>
