<?xml version="1.0" encoding="utf-8"?>
<!-- Generator: Adobe Illustrator 26.2.1, SVG Export Plug-In . SVG Version: 6.00 Build 0)  -->
<svg version="1.1" id="Layer_1" xmlns="http://www.w3.org/2000/svg" xmlns:xlink="http://www.w3.org/1999/xlink" x="0px" y="0px"
	 viewBox="0 0 150 150" style="enable-background:new 0 0 150 150;" xml:space="preserve">
	<g transform="translate(0.000000,245.000000) scale(0.100000,-0.100000)">
		<path d="M526.2,2279.7c-11.6-11.6-15.4-111.9-15.4-390.9c0-330.5,2.6-376.8,20.6-383.2c11.6-3.9,23.1-7.7,25.7-7.7
			c3.9,0,3.9,168.5,2.6,372.9l-3.9,372.9H759h201.9v-372.9c0-326.6,2.6-371.7,19.3-365.2c16.7,6.4,19.3,59.2,16.7,396.1l-3.9,387.1
			l-225.1,3.9C603.4,2295.1,537.8,2291.3,526.2,2279.7z"/>
		<path d="M369.3,2196.1c-52.7-18-99-34.7-101.6-37.3s39.9-149.2,96.5-325.4c55.3-176.2,104.2-317.6,106.7-315.1
			c19.3,19.3-10.3,158.2-77.2,370.4c-42.4,132.5-75.9,243.1-73.3,244.3c2.6,1.3,37.3,12.9,78.4,25.7c56.6,16.7,73.3,27,73.3,47.6
			c0,12.9-1.3,24.4-2.6,23.1C467.1,2229.5,422.1,2214.1,369.3,2196.1z"/>
		<path d="M1038.1,2198.7c0-23.1,11.6-30.9,70.7-45c63-15.4,70.7-20.6,63-43.7c-3.9-15.4-36-118.3-72-228.9
			c-47.6-153-61.7-217.3-59.2-266.2c3.9-60.4,9-47.6,92.6,214.8c48.9,153,91.3,290.6,93.9,304.8c5.1,21.9-9,30.9-91.3,59.2
			l-97.7,33.4V2198.7z"/>
		<path d="M594.4,2063.6c-5.1-9-3.9-20.6,3.9-28.3c18-18,57.9-2.6,51.4,19.3C642,2075.2,606,2081.6,594.4,2063.6z"/>
		<path d="M697.3,2063.6c-15.4-25.7,14.1-39.9,72-36c39.9,2.6,56.6,9,56.6,23.1C825.9,2075.2,711.4,2085.5,697.3,2063.6z"/>
		<path d="M864.5,2063.6c-5.1-9-3.9-20.6,3.9-28.3c18-18,57.9-2.6,51.4,19.3C912,2075.2,876,2081.6,864.5,2063.6z"/>
		<path d="M191.9,2005.8c-36-25.7-66.9-47.6-66.9-50.2c0-11.6,259.8-414.1,279.1-432.1c18-18,19.3-15.4,12.9,21.9
			c-7.7,36-174.9,318.9-223.8,378.1c-15.4,19.3-11.6,24.4,32.2,51.4c38.6,23.1,48.9,36,42.4,54C260,2048.2,252.3,2045.6,191.9,2005.8
			z"/>
		<path d="M1227.1,2026.3c-3.9-18,7.7-30.9,45-52.7c45-25.7,48.9-30.9,32.2-50.2c-48.9-56.6-216-340.8-222.5-376.8
			c-7.7-38.6-6.4-41.2,11.6-23.1c11.6,10.3,79.7,111.9,150.5,225.1l131.2,205.8l-33.4,25.7c-18,14.1-50.2,36-70.7,48.9
			C1236.1,2049.5,1233.5,2049.5,1227.1,2026.3z"/>
		<path d="M712.7,1926c-5.1-3.9-9-15.4-9-24.4s-16.7-33.4-38.6-54c-47.6-48.9-51.4-102.9-7.7-153c39.9-46.3,56.6-29.6,27,27
			c-20.6,37.3-21.9,50.2-9,77.2c21.9,47.6,37.3,41.2,30.9-11.6c-3.9-34.7-1.3-45,15.4-45c15.4,0,20.6,12.9,20.6,51.4
			c0,28.3,6.4,51.4,12.9,51.4c7.7,0,12.9-23.1,12.9-51.4c0-38.6,5.1-51.4,20.6-51.4c16.7,0,19.3,10.3,15.4,45
			c-5.1,50.2,7.7,59.2,28.3,20.6c19.3-36,15.4-66.9-9-93.9c-15.4-16.7-16.7-28.3-7.7-37.3c23.1-23.1,68.2,37.3,68.2,92.6
			c0,37.3-9,55.3-37.3,79.7c-20.6,16.7-39.9,41.2-41.2,54c-7.7,33.4-37.3,39.9-37.3,7.7c0-15.4-5.1-27-12.9-27
			c-6.4,0-12.9,11.6-12.9,25.7C742.3,1935,728.1,1942.8,712.7,1926z"/>
		<path d="M597,1541.5c-12.9-14.1,3.9-30.9,30.9-30.9c12.9,0,24.4,9,24.4,19.3C652.3,1549.2,612.4,1556.9,597,1541.5z"/>
		<path d="M684.4,1536.4c-3.9-6.4,0-16.7,10.3-20.6c29.6-10.3,131.2,0,131.2,14.1C825.9,1547.9,694.7,1554.4,684.4,1536.4z"/>
		<path d="M867,1541.5c-12.9-14.1,3.9-30.9,30.9-30.9c12.9,0,24.4,9,24.4,19.3C922.3,1549.2,882.5,1556.9,867,1541.5z"/>
		<path d="M206,1470.8c-96.5-23.1-105.5-74.6-20.6-110.6c61.7-25.7,295.8-27,370.4-1.3c41.2,12.9,51.4,23.1,51.4,48.9
			c0,50.2-55.3,69.4-212.2,73.3C320.5,1482.4,235.6,1477.2,206,1470.8z M543,1421.9l38.6-10.3l-38.6-11.6
			c-56.6-16.7-316.4-14.1-347.2,3.9c-21.9,12.9-19.3,15.4,25.7,23.1c28.3,3.9,60.4,10.3,70.7,12.9
			C321.8,1447.6,499.2,1434.8,543,1421.9z"/>
		<path d="M955.8,1468.2c-93.9-29.6-96.5-87.4-5.1-113.2c90-24.4,307.4-19.3,366.5,9c64.3,32.2,69.4,61.7,14.1,90
			C1277.3,1482.4,1030.3,1492.6,955.8,1468.2z M1297.8,1421.9c28.3-11.6,28.3-11.6,3.9-21.9c-38.6-16.7-330.5-14.1-360.1,3.9
			c-21.9,12.9-16.7,15.4,38.6,23.1c36,5.1,70.7,10.3,77.2,14.1C1077.9,1448.9,1265.7,1433.5,1297.8,1421.9z"/>
		<path d="M127.6,1329.3c2.6-10.3,27-28.3,54-42.4c91.3-45,407.7-27,428.2,25.7c11.6,29.6,1.3,30.9-66.9,11.6
			c-33.4-10.3-109.3-19.3-165.9-19.3c-95.2,0-136.3,6.4-225.1,33.4C128.9,1344.8,122.4,1343.5,127.6,1329.3z"/>
		<path d="M647.1,1322.9c-3.9-11.6-7.7-23.1-7.7-25.7s50.2-5.1,110.6-5.1c95.2,0,109.3,2.6,102.9,20.6c-3.9,11.6-7.7,23.1-7.7,25.7
			s-42.4,5.1-95.2,5.1C675.4,1343.5,653.5,1339.6,647.1,1322.9z"/>
		<path d="M883.7,1317.8c19.3-36,102.9-55.3,244.3-55.3c126,0,204.5,16.7,232.8,50.2c23.1,28.3,11.6,30.9-65.6,10.3
			c-91.3-23.1-262.3-23.1-342.1,1.3C872.2,1348.6,867,1348.6,883.7,1317.8z"/>
		<path d="M125,1254.7c0-48.9,187.8-84.9,344.7-65.6c104.2,14.1,144,29.6,144,59.2c0,14.1-7.7,16.7-28.3,10.3
			c-70.7-23.1-126-30.9-216-30.9c-87.4,0-131.2,6.4-214.8,32.2C136.6,1266.3,125,1263.7,125,1254.7z"/>
		<path d="M883.7,1240.6c19.3-34.7,102.9-54,237.9-54c126,0,212.2,16.7,237.9,47.6c24.4,29.6,12.9,32.2-64.3,11.6
			c-91.3-23.1-262.3-23.1-342.1,1.3C872.2,1271.5,867,1271.5,883.7,1240.6z"/>
		<path d="M125,1177.6c0-48.9,187.8-84.9,344.7-65.6c104.2,14.1,144,29.6,144,59.2c0,14.1-7.7,16.7-28.3,10.3
			c-70.7-23.1-126-30.9-216-30.9c-87.4,0-131.2,6.4-214.8,32.2C136.6,1189.2,125,1186.6,125,1177.6z"/>
		<path d="M883.7,1163.4c19.3-34.7,102.9-54,237.9-54c126,0,212.2,16.7,237.9,47.6c24.4,29.6,12.9,32.2-64.3,11.6
			c-91.3-23.1-245.6-23.1-338.2,1.3C864.5,1194.3,867,1194.3,883.7,1163.4z"/>
	</g>
</svg>
