<?xml version="1.0" encoding="utf-8"?>
<!-- Generator: Adobe Illustrator 26.2.1, SVG Export Plug-In . SVG Version: 6.00 Build 0)  -->
<svg version="1.1" id="Layer_1" xmlns="http://www.w3.org/2000/svg" xmlns:xlink="http://www.w3.org/1999/xlink" x="0px" y="0px"
	 viewBox="0 0 150 150" style="enable-background:new 0 0 150 150;" xml:space="preserve">
<path fill="#1D3469" d="M68,14.3c-2,1-3.8,2.6-3.8,3.4s-1.3,1.5-2.8,1.5c-4.3,0-9,2.7-13.5,8.1c-3.6,4.3-5.4,9.1-6.6,18.7c-0.2,1.3-1.5,2.7-3,3.4
	c-3.1,1.4-3.3,4.1-0.2,6c1.3,0.7,1.9,2,1.6,2.8c-0.2,0.8-0.1,5.1,0.5,9.6c1.1,9.9,0.3,12.3-4.9,14.8c-2.2,1-4,2.5-4,3.3
	c0,3.8,13.4,9.8,17,7.6c2.8-1.8,1.8-3.1-3.2-4c-5.5-0.9-8.7-3.1-6-4c0.8-0.3,2.5-1.7,3.8-3.1c2.2-2.2,2.3-3.3,1.6-13
	c-0.6-6.9-0.3-10.5,0.3-10.5c1.9,0,2.4,1.5,2.6,10c0.1,4.6,1.1,10.8,2.2,14c7.7,22.9,40.4,24.4,50.3,2.3c1.5-3.1,2.6-8.9,3.1-15.3
	c0.5-7.2,1.1-10.5,2.3-10.8c1.3-0.5,1.4,1.4,0.7,9.9c-0.7,8.7-0.5,10.8,1,13.2c1,1.6,2.6,2.8,3.6,2.8c3.5,0,0.8,2.8-3.6,3.9
	c-8,1.7-7.9,1.7-5.9,3.6c2.2,2.3,8.7,1.1,13.8-2.3c4.9-3.3,5.1-5.7,0.8-7.5c-5.9-2.4-6.8-5-5.6-14.8c0.6-4.7,0.8-9.3,0.5-10.4
	c-0.5-1.4,0.1-2.3,1.7-2.7c3.2-1,3-4.7-0.5-5.6c-2.3-0.6-2.7-1.6-3.3-6.8C107,30.3,97.8,19.2,88.7,19.2c-1.6,0-2.8-0.7-2.8-1.5
	c0-1.9-7.2-5.4-11.2-5.2C73,12.5,69.9,13.4,68,14.3z M80.8,18.1c0.6,0.6,0.8,4.2,0.5,8.2c-0.5,6.1-0.9,7.3-3.5,8.8
	c-2.7,1.5-3.3,1.5-5.9-0.2c-2.5-1.6-3-2.8-3.3-8.9c-0.2-5.2,0.1-7.2,1.4-8C72.2,16.7,79.5,16.7,80.8,18.1z M64.2,27.5
	c0,2.6,0.8,5.9,1.7,7.3c1.7,2.4,1.5,2.7-2.5,6.5c-4.1,3.8-4.3,4.3-4.3,10.7c0,5.8,0.5,7.4,2.8,9.9l2.8,3.1l-2.8-0.8
	c-1.6-0.5-6.9-3.3-11.8-6.4c-6.3-3.8-8.5-5.7-7.3-6.1c1.1-0.5,2-2.8,2.5-6.5c1.4-10.2,4.8-16.3,11.5-20.4
	C62.5,21.3,64.2,21.8,64.2,27.5z M91.9,24.2c6.9,3,11.2,9.8,12.9,20.6c0.5,3.1,1.5,6.1,2.4,6.8c1.1,0.9-0.6,2.4-7.3,6.4
	c-4.9,3-10.1,5.7-11.7,6.1L85.3,65l2.5-2.7c6.3-6.7,4.2-19-3.8-23.5c-1.8-1-1.8-1.3,0-3.8c1-1.5,1.8-4.9,1.8-7.5
	C85.8,22.2,86.4,21.8,91.9,24.2z M83.9,44.3c7.1,7.9,1.7,20.5-8.9,20.5c-6.8,0-11.8-5.1-12-12.1C63.1,41,76.2,35.7,83.9,44.3z
	 M56.8,66.5c3.8,1.8,7.1,2.3,18.2,2.3c11.8,0,14.3-0.3,18.7-2.5c2.8-1.4,5.2-2.4,5.4-2.3c0.2,0.1-0.1,4-0.7,8.5
	c-2,16.4-9.6,24.1-23.3,24.1c-10.4,0-16.9-4.2-20.8-13.7C52,78.1,50,63.1,51.5,63.9C51.9,64.1,54.3,65.3,56.8,66.5z"/>
<path fill="#1D3469" d="M37.5,103.9c-6.8,3.2-9.9,6.4-13,13.2c-2.3,5-3.3,18-1.6,19.7c1.8,1.9,3.8-2.2,3.8-8c0-7.2,2-12.3,6.8-16.9l3.4-3.3v13.9
	c0,13.7,0.7,16.5,3.4,13.3c0.9-1.1,1.3-5.9,1-15.6c-0.3-13.2-0.2-14,1.8-14.3c2.2-0.3,2.3,0.2,1.9,14c-0.3,9.9,0,14.8,0.9,15.9
	c2.7,3.3,3.4,0.2,3.4-15.5v-15.8H54c2.4,0,5,0.7,5.6,1.4c0.7,0.8,2.6,3.2,4.3,5.4c3.8,4.7,9.7,7.3,14,6.4c2.7-0.6,6.9-4.4,12.6-11.7
	c0.6-0.7,3.3-1.4,5.9-1.4h4.8l-0.3,14.8c-0.3,10.4,0,15.4,0.9,16.5c2.7,3.3,3.4,0.2,3.4-14.9c0-8.4,0.2-15.3,0.5-15.3
	s1.3,0.3,2.3,0.7c1.5,0.6,1.8,3,1.8,14.7c0,10.2,0.5,14.2,1.5,15.3c0.9,0.7,1.9,0.9,2.3,0.5c0.5-0.3,0.8-6.5,0.8-13.5
	c0-14.2,0.7-15.1,5.6-7.5c2,3.1,3,6.3,3.3,11.6c0.8,12.3,4.8,13.9,4.8,1.9c-0.1-12.1-5.2-20.6-15.4-25.4c-4.6-2.2-7.6-2.7-15.5-2.7
	h-9.8l-3.1,4.6c-6.5,9.8-11.4,9.9-18,0.6l-3.6-5.1h-9.7C45.1,101.2,42,101.8,37.5,103.9z"/>
</svg>
