<?xml version="1.0" encoding="utf-8"?>
<!-- Generator: Adobe Illustrator 26.2.1, SVG Export Plug-In . SVG Version: 6.00 Build 0)  -->
<svg version="1.1" id="Layer_1" xmlns="http://www.w3.org/2000/svg" xmlns:xlink="http://www.w3.org/1999/xlink" x="0px" y="0px"
	 viewBox="0 0 150 150" style="enable-background:new 0 0 150 150;" xml:space="preserve">
<g transform="translate(0.000000,735.000000) scale(0.100000,-0.100000)">
	<path fill="#1D3469" d="M685.1,7217.1c-18-10-38.8-27.7-38.8-33.1c0-2.7-2.3-5.4-5.4-6.6c-2.7-1.2-6.5-7.7-7.7-15c-10.4-49.3-5.4-72.4,22.3-101
		c18-18.9,18.8-20,19.6-44.3c0.8-30.1,6.1-51.6,15-60.1c7.3-7.7,8.1-19.7,1.2-22.3c-2.7-1.2-9.2,0.4-14.6,3.5
		c-10.7,6.2-31.5,6.9-41.1,1.9c-3.5-1.9-9.2-4.6-12.3-5.8c-3.1-1.5-10.7-5.8-17.3-10c-6.1-4.2-15.3-9.2-20-11.6
		c-5-1.9-8.8-5.4-8.8-7.7c0-1.9-1.9-3.9-3.8-3.9c-2.3,0-11.1-4.6-20.3-10.4c-22.6-15-30.7-19.7-37.2-22.7
		c-3.1-1.5-11.9-7.3-19.2-13.1s-16.1-11.6-19.2-12.7c-3.1-1.5-10.7-6.2-17.3-10.4c-6.1-4.2-14.2-8.9-17.3-10.4
		c-3.1-1.2-11.9-6.9-19.2-12.7c-7.3-5.8-16.1-11.6-19.2-12.7c-3.1-1.5-10.7-6.2-17.3-10.4c-6.1-4.2-15.3-9.2-20-11.6
		c-5-1.9-8.8-5.4-8.8-7.3c0-1.9-4.2-4.2-8.8-5.8c-10.7-2.7-37.2-26.6-37.2-33.9c0-2.7-2.7-8.5-5.8-12.3c-7.3-9.6-7.3-41.2,0-50.9
		c3.1-3.9,5.8-9.6,5.8-12.3c0-13.1,16.1-27,49.5-43.2c16.9-7.7,17.6-7.7,38.4-1.5c11.9,3.9,24.2,8.9,27.6,11.9c3.1,2.7,7.3,5,8.8,5
		c1.9,0,9.6,5.4,17.6,11.6c8.1,6.6,15.7,11.6,17.3,11.6c2.7,0,35.3,23.9,44.5,32.8c7.7,7.7,18.8,7.3,18.8-0.4c0-3.1-3.5-12.3-7.3-20
		c-4.2-7.7-10.4-21.2-14.2-29.7c-3.5-8.5-8.8-20-11.9-25.8c-2.7-5.4-5-13.5-5-17.7c0-4.2-2.7-12.7-5.8-18.5c-3.1-6.2-5.8-15-5.8-20
		c0-5-1.9-12.7-4.6-17.3c-2.3-4.6-5.8-15.4-7.3-23.9c-2.7-14.6-5.8-26.6-15.3-64.3c-2.3-9.2-5.4-26.2-7.3-37.8
		c-1.5-11.6-5-28.1-7.3-36.6c-2.3-8.5-4.2-24.3-4.2-34.7c0-18.9,0.4-19.7,15.3-26.2c8.4-3.5,19.2-6.6,24.2-6.6
		c4.6-0.4,14.2-3.5,21.5-6.9l13-6.6l-0.8-112.6c-0.8-118.3,0.8-132.1,17.5-156.9c17.9-27.1,42.2-38.9,78.7-38.9
		c33.1,0,48.6,6.5,66.9,27.1l11,13l10.6-8.8c39.5-31.7,38.4-31.3,69.2-31.3c21.7,0,33.1,1.9,44.1,7.6c15.6,8,39.9,27.9,39.9,32.8
		c0,1.5,3,6.1,6.8,10.3c5.7,6.5,6.5,17.9,6.5,114.9c0,58.8,1.5,108.4,3,109.5c1.9,1.1,17.1,2.7,34.2,2.7
		c31.9,0.8,52.1,6.1,52.1,13.7c0,2.3-2.7,12.6-5.7,22.9c-3,10.3-5.7,26.7-5.7,36.3s-2.7,27.9-5.7,40.5c-3,12.6-5.3,32.8-5.7,45
		c0,11.8-2.3,37.8-5.3,57.3c-9.9,64.9-11,90.1-4.2,92.8c3.4,1.5,9.1-0.4,12.9-3.8c3.8-3.4,8-6.1,9.9-6.1c2.7,0,22.4-8.8,50.6-22.5
		c6.5-3.1,12.2-6.9,12.2-8s-4.2-8.8-9.5-17.2l-9.1-15.3l6-243v-245.9l13.9-13.6c12.8-13.2,15.1-14,36.9-14
		c21.8,0,23.7,0.8,36.9,14.4l14.3,14.8l-0.4,216.1c-0.4,117.9,0.4,216.2,1.9,218.5c3.5,5.8,9.6,0.8,9.6-7.7c0-3.9,4.2-11.9,9.2-18.1
		c8.1-9.6,11.9-10.8,32.6-10.8c21.9,0,24.2,1.2,37.2,14.3l14.2,13.9l-0.8,33.9c0,22.3-1.9,35.4-5.4,39.7c-9.2,10.8-10,22.3-2.3,29.7
		c6.1,5.4,7.3,11.9,7.3,38.1c0,23.5-1.5,33.1-5.8,36.6c-3.1,2.7-5.8,6.9-5.8,9.6c0,5.4-27.2,28.9-33.8,28.9c-2.3,0-8.8,2.3-15,5.4
		c-10,5-19.2,9.2-52.9,23.9c-13.4,5.4-23.8,10-54.5,23.5c-15,6.6-28,23.9-28,37.4c0,3.1-2.7,7.3-5.8,10c-3.1,2.7-5.8,8.9-5.8,13.5
		c0,4.6-2.7,10.8-5.8,13.5c-3.1,2.7-5.8,6.2-5.8,8.1c0,1.9-5,14.3-11.1,27.4c-6.1,13.5-11.9,27-13.4,30.1
		c-5,11.2-11.9,21.2-22.3,32.4c-11.1,11.6-11.1,17.7,0,17.7c7.3,0,46.8,40.8,46.8,48.2c0,2.7,2.7,6.9,5.8,9.6
		c3.1,2.7,5.8,7.7,5.8,11.6c0,3.9,2.7,11.9,5.8,17.7c7.7,14.6,7.7,73.6,0.4,90.9c-3.1,6.9-6.5,15.4-7.7,18.5
		c-1.5,3.1-5.8,11.2-10,17.3c-4.2,6.6-8.8,14.3-10.4,17.3c-5.4,12.3-33,36.2-51,44.7c-3.1,1.5-8.4,5-11.5,7.3
		c-3.1,2.7-10.7,5.8-17.3,6.9c-49.5,9.6-53.3,10-60.2,6.2c-11.1-5.8-24.9-1.2-40.3,13.9c-7.7,7.3-16.1,13.5-18.4,13.5
		c-2.7,0-6.9,2.7-9.6,5.8C754.2,7227.8,702,7226.7,685.1,7217.1z M743.8,7181.8c13.5-5.8,19.2-10.8,35.4-30.9
		c8.8-11.2,9.2-11.2,21.9-5c16.5,8.5,16.9,8.5,8.8-3.1c-4.2-5.8-10.8-9.3-16.9-9.7c-5.8,0-12.3-2.7-15-5.8s-7.3-5.8-10-5.8
		c-3.1,0-16.1-11.2-29.6-25.1c-16.1-16.6-27.3-25.1-33.5-25.1c-12.7,0-38.5,29-38.8,44c-0.8,25.1,1.5,35.1,11.2,47.9
		C693.8,7185.3,719.2,7192.3,743.8,7181.8z M915.3,7115.8c17.3-7,35-34.8,42.7-67.6c6.2-25.9,6.2-24.7,0.8-48.3
		c-9.6-41.3-32.3-72.6-66.5-91.1c-13.8-7.7-21.5-9.3-56.9-9.3c-31.1,0-42.7,1.5-48.1,5.8c-4.2,3.1-13.5,9.3-20.8,13.1
		c-20,10.8-25.8,17-39.2,40.2c-11.2,19.7-11.5,21.6-6.9,36.7c7.3,24.7,9.2,28.2,30,57.5c13.5,18.5,49.2,47.1,68.1,54.4
		C856.5,7122.4,891.8,7125.5,915.3,7115.8z M685,6896.9c2.3-2.3,4.6-10,4.6-17.8c0-30.5,33.5-72.2,67.7-84.6c20-7,61.1-8.5,67.7-1.9
		c2.3,2.3,8.5,4.6,13.1,4.6c10,0,47.7,34.8,47.7,44c0,3.5,2.7,6.2,6.2,6.2c6.9,0,28.5-22.8,28.5-30.1c0-3.1,2.3-10,5.4-15.4
		c5.8-11.2,15.8-34,19.2-43.3c1.2-3.1,3.8-8.5,5.4-11.6c1.9-3.1,6.2-12,9.2-19.3c12.3-29.3,24.6-51.4,30-54.4
		c16.9-8.5,34.6-15.1,41.9-15.1c17.7,0,5.8-22.4-37.3-68.4l-8.8-9.7l-16.9,10c-9.2,5.4-18.8,10-21.1,10c-9.6,0-38.5,30.1-38.5,40.5
		c0,4.2-2.7,11.2-5.8,15.1c-3.1,4.2-5.8,11.2-5.8,15.8c0,8.1-17.7,20.1-22.3,15.4c-3.8-3.9-0.4-90,5.4-137.1
		c2.7-24.3,5.4-54.8,5.4-67.6c0-12.7,2.7-37.8,5.8-56c3.1-18.1,5.8-39.8,5.8-48.3s3.1-29.7,6.5-47.1c3.5-17.4,5.4-32.8,4.2-34
		c-9.6-10-231.9-4.6-279.9,6.6c-9.6,2.3-27.7,5.4-40.4,7.3c-22.3,3.1-48.8,8.9-88.4,20.5l-19.2,5.4l1.2,20.5
		c0.8,11.6,3.8,28.2,6.5,37.5c3.1,8.9,5.8,23.6,5.8,32.1s2.7,21.6,5.8,29.3c3.1,7.3,5.8,18.5,5.8,24.3s2.7,15.8,5.8,21.6
		c3.1,6.2,5.8,16.6,5.8,22.8c0,6.6,2.7,15.1,5.8,18.9c3.1,4.2,5.8,12,5.8,17.4s2.7,13.5,5.8,17.4c3.1,4.2,5.8,11.2,5.8,15.8
		c0,4.6,2.7,11.6,5.8,15.8c3.1,3.9,5.8,10.4,5.8,14.3c0,4.2,2.3,12,5.4,17.4c3.1,5.8,8.5,18.1,11.9,27.8c3.5,9.7,8.1,20.1,10,23.2
		c1.9,3.1,4.2,7.7,5,9.7c0.8,2.3,2.7,6.6,3.8,9.7c1.2,3.1,3.8,8.9,6.2,12.7c1.9,3.5,5.8,9.7,7.7,13.5c9.6,16.6,11.9,25.9,8.5,31.7
		c-4.6,7-20.4,5.8-25-1.9c-1.5-3.1-5-5.8-7.3-5.8c-1.9,0-10.4-5-18.5-11.6c-8.1-6.2-15.8-11.6-16.9-11.6s-9.6-5-18.5-11.6
		c-8.5-6.2-18.1-11.6-21.1-11.6c-2.7,0-6.2-2.7-7.3-5.8c-1.5-3.1-4.2-5.8-6.5-5.8c-2.3,0-8.1-3.9-13.1-8.5
		c-10.4-9.7-18.8-7-26.5,8.1c-2.7,5-6.5,10.8-8.8,13.1c-2.3,2.3-4.2,7.3-4.2,11.2c0,3.5-2.3,8.1-5.4,9.7c-2.7,1.5-6.9,7-9.2,11.2
		c-5.4,10-0.4,15.1,29.2,30.5c10.8,5.8,20,12,20,13.9c0,1.9,1.9,3.5,4.2,3.5c2.3,0,11.9,5.4,21.5,11.6c9.2,6.6,17.7,11.6,18.5,11.6
		c1.2,0,12.7,7.3,26.1,16.6c13.1,9.3,26.5,18.1,29.6,19.7c8.5,3.9,18.5,10,44.2,27.4c12.7,8.5,27.3,16.6,32.7,17.8
		C658.8,6905,678.1,6902.3,685,6896.9z M752.7,6881.4c23.8-14.7,38.8-18.9,72.7-21.2c21.1-1.5,25.8-3.1,25.8-8.5
		c0-14.7-53.1-28.6-79.2-20.5c-21.5,7-51.5,43.3-46.5,56.4C728.4,6896.1,730,6895.7,752.7,6881.4z M397.4,6718.1
		c5-11.6,10.4-21.2,12.3-21.2c1.5,0,3.1-2.3,3.1-5.4c0-2.7,2.7-7.3,5.8-10c3.1-2.7,5.8-8.5,5.8-13.1c-0.4-10-26.5-23.2-45-22.8
		c-25.8,0.8-46.1,29.7-38.1,54.1c3.8,11.6,34.2,39,43.1,39.4C386.6,6739.3,392.4,6729.6,397.4,6718.1z M1153.7,6593.3
		c10.8-12.7,12.3-38.2,2.7-42.1c-3.1-1.2-13.5,1.5-22.3,6.2c-19.6,9.7-56.5,10.8-71.5,2.3c-12.7-7.3-28.5-7.3-34.6,0
		c-6.2,7.3-5.4,8.9,20.4,36.3c11.9,13.1,21.9,25.1,21.9,27c0,1.5,3.5,4.6,8.1,6.6c6.5,3.1,14.6,0.4,37.7-11.2
		C1132.2,6610.3,1149.1,6599.1,1153.7,6593.3z M1115,6525c22.7-7,31.5-14.3,41.1-34.4c9.2-19.7,9.2-35.1-0.4-44.8
		c-4.2-4.2-8.5-7.7-9.6-7.7c-6.9,0-17.3,17.4-17.3,29c0,11.2-2.3,15.1-12.3,21.2c-18.5,11.2-38.8,10-48.8-2.3
		c-8.1-10-8.1-13.5-8.1-235.6v-225.1l-8.5-5.8c-7.3-5-9.6-5.4-16.5-0.8c-7.7,5-7.7,8.5-8.8,226.7c-0.8,240.2-0.4,246.4,20,265.7
		c7.3,7,32.3,16.6,48.4,19.3C1095.4,6530.4,1104.6,6528.1,1115,6525z M582.8,6269.9c2.7-2.3,22.1-5,42.7-5.7l37.8-1.5v-104.2
		c0-110.4,0-109.6-19.1-128.4c-7.2-7.7-32.4-19.5-40.4-19.5c-9.2,0-33.2,13.8-44.3,25.7l-10.3,10.7l-0.4,113
		c-0.4,62.1-0.4,114.6-0.4,116.1C548.9,6279.9,576,6274.9,582.8,6269.9z M778,6252.2l47.4-0.4l1.2-99.2
		c0.8-89.6,0.4-100.4-5.8-109.7c-10.4-16.2-17-21.6-34.8-29.7c-15.5-7-17.4-7-33.3-0.8c-9.3,3.5-22.4,12-29,18.9l-12.4,12.7l6,104.5
		v107.7c-4.7,3.9-2.4,4.2,4.1,1.9C726.1,6256.2,778,6252.2,778,6252.2z"/>
</g>
</svg>
