<?xml version="1.0" encoding="UTF-8"?>
<svg id="a" xmlns="http://www.w3.org/2000/svg" xmlns:xlink="http://www.w3.org/1999/xlink" viewBox="0 0 35.9 35.89">
  <defs>
    <style>.d{fill:url(#c);}.e{fill:none;}.f{clip-path:url(#b);}
    </style>
    <clipPath id="b">
      <path class="e" d="M21.99,29.35c2.36-.03,4.59-.37,6.57-1.04,.5-.17,.97-.35,1.42-.56-.55,1.35-1.36,2.47-2.42,3.3-2.08,1.53-4.54,2.58-7.2,2.98,.67-1.15,1.2-2.78,1.62-4.69m-11.09,3.27s-.1-.08-.16-.11c-.93-.45-1.3-2.52-.82-5.68,1.78,.8,3.72,1.44,5.76,1.87,1.54,.33,3.08,.53,4.59,.61-.74,3.21-1.68,4.89-2.31,4.89-.04,0-.08,0-.12,.01-2.48-.02-4.84-.59-6.94-1.6M2.3,22.4c-.14-.54-.23-1.09-.27-1.66,.56,.79,1.24,1.57,2.05,2.32,1.22,1.13,2.67,2.14,4.29,3-.33,1.85-.42,3.52-.22,4.87-2.78-2.11-4.87-5.09-5.85-8.53m20.75-4.48c0-.65,0-1.31-.03-1.96,2.08-.14,4-.68,5.57-1.58,1.46,2.88,2.24,5.93,2.23,8.8,0,.83-.07,1.62-.21,2.37-.75,.46-1.61,.86-2.58,1.18-1.72,.58-3.67,.9-5.72,.95,.5-2.97,.73-6.41,.73-9.76m-7.01,9.16c-2.07-.44-4.02-1.1-5.79-1.93,.58-2.61,1.66-5.78,3.38-9.3,.25-.51,.5-1.01,.76-1.5,1.2,.54,2.5,.97,3.87,1.26,1.04,.22,2.08,.34,3.1,.38,.02,.63,.03,1.27,.03,1.94,0,3.93-.31,7.19-.77,9.74-1.49-.07-3.03-.26-4.58-.59m-10.83-5.24c-1.42-1.31-2.39-2.7-2.89-4.08,.39-1.54,1.16-3.09,2.28-4.58,1.06-1.41,2.39-2.68,3.9-3.77,.44,.79,1.05,1.56,1.83,2.3,.74,.7,1.61,1.32,2.57,1.88-.26,.5-.52,1.01-.77,1.53-1.48,3.03-2.69,6.29-3.4,9.25-1.32-.74-2.5-1.59-3.51-2.52M21.91,6.32c1.9,1.41,3.64,3.24,5.09,5.37,.28,.4,.54,.81,.78,1.23-1.33,.77-3.02,1.23-4.84,1.36-.15-2.88-.49-5.65-1.04-7.96m-3.31,7.65c-1.21-.26-2.36-.63-3.41-1.09,1.56-2.73,3.26-5.09,4.94-6.85,.53,2.07,.97,4.84,1.15,8.29-.89-.04-1.79-.15-2.68-.34m-7.13-3.48c-.69-.65-1.22-1.32-1.57-2,1.56-.94,3.29-1.71,5.14-2.26,1.1-.33,2.21-.57,3.31-.74-1.6,1.79-3.19,4.07-4.66,6.64-.84-.48-1.58-1.03-2.23-1.63m-3.59-5.32c-.02,.08-.05,.17-.07,.26-.17,.79-.15,1.59,.05,2.39-1.8,1.24-3.36,2.7-4.6,4.35-.38,.5-.72,1.01-1.02,1.53,.93-3.42,2.94-6.39,5.64-8.53m1.57,.61c.19-.87,.71-1.64,1.51-2.28,1.95-.58,4.22-.44,6.6,.43-1,.17-2.01,.41-2.99,.71-1.84,.55-3.58,1.31-5.17,2.23-.04-.36-.02-.73,.06-1.08m13.54-2.2c.57-.37,1.1-.62,1.54-.73,.84,.34,1.67,.76,2.45,1.31-1.26-.32-2.61-.51-4-.58m-2.81-1.79c.68,.08,1.4,.19,2.14,.37-.47,.25-.95,.56-1.44,.94-.22-.49-.45-.93-.71-1.3m-1.81,.66c-.76-.29-1.5-.51-2.24-.67,.59-.07,1.19-.1,1.79-.1,.28,0,.63,.34,1,1.01-.19-.08-.37-.16-.56-.23M0,17.95c0,1.71,.25,3.35,.69,4.92,.03,.1,.05,.21,.08,.32,0,.02,.01,.04,.02,.06,2.26,7.32,9.1,12.65,17.15,12.65,3.73,0,7.19-1.14,10.06-3.09,.03-.02,.06-.03,.08-.05,.17-.12,.33-.24,.49-.37,3.3-2.44,5.74-5.98,6.77-10.08,.06-.19,.11-.38,.15-.57,0-.05,.01-.09,.01-.14,.24-1.18,.37-2.4,.37-3.65,0-2.42-.47-4.77-1.41-6.99-.18-.43-.67-.62-1.09-.44-.42,.18-.62,.67-.44,1.09,.85,2.01,1.28,4.14,1.28,6.34,0,1.35-.17,2.66-.48,3.91-.25,.79-.68,1.52-1.28,2.18,.01-.28,.02-.57,.03-.86,0-3.2-.88-6.58-2.52-9.76,1.2-1.03,1.97-2.31,2.24-3.74,.08-.45-.22-.89-.67-.97-.45-.09-.89,.22-.97,.67-.17,.94-.67,1.81-1.43,2.55-.24-.4-.49-.79-.75-1.17-1.47-2.15-3.21-4.01-5.11-5.49,2.51,.17,4.84,.77,6.71,1.82,.29,.17,.68,.16,.96-.07,.35-.3,.4-.82,.1-1.18C28.36,2.08,23.71,0,17.95,0,8.05,0,0,8.05,0,17.95"/>
    </clipPath>
    <radialGradient id="c" cx="-339.18" cy="742.8" fx="-339.18" fy="742.8" r=".49" gradientTransform="translate(20636.7 45126.36) scale(60.74 -60.74)" gradientUnits="userSpaceOnUse">
      <stop offset="0" stop-color="#fff"/>
      <stop offset=".06" stop-color="#e7f6fd"/>
      <stop offset=".18" stop-color="#afe2fa"/>
      <stop offset=".36" stop-color="#37c6f4"/>
      <stop offset=".54" stop-color="#00aeef"/>
      <stop offset="1" stop-color="#002f54"/>
    </radialGradient>
  </defs>
  <g class="f">
    <rect class="d" width="35.9" height="35.89"/>
  </g>
</svg>
